<svg width="3117" height="685" viewBox="0 0 3117 685" fill="none" xmlns="http://www.w3.org/2000/svg">
<path fill-rule="evenodd" clip-rule="evenodd" d="M347.14 0L533.333 186.193V666.667H0V0H347.14ZM319.5 66.6667H66.6667V600H466.667V213.833L319.5 66.6667Z" fill="#D30000"/>
<path d="M296.166 309.683V211.333H237.168V309.683L232.183 311.336L140.779 279.104L121.667 334.477L214.733 365.883L216.395 372.495L153.243 457.622L201.438 492.333L263.759 407.207H269.575L331.896 492.333L380.091 457.622L316.108 372.495L318.601 365.883L411.667 334.477L392.555 279.104L300.32 311.336L296.166 309.683Z" fill="#D30000"/>
<path d="M1001.9 432.274L1005.07 482.575C1005.98 496.623 1009.15 511.577 1015.95 522H966.098C959.301 512.03 957.035 497.529 956.582 480.762L955.222 446.322C953.41 402.818 936.189 389.223 900.389 389.223H806.585V522H758.096V199.348H899.03C967.004 199.348 1010.06 232.429 1010.06 288.621C1010.06 328.952 989.209 355.689 955.675 366.565C988.756 376.081 1000.54 398.74 1001.9 432.274ZM806.585 348.892H899.936C935.283 348.892 960.207 330.312 960.207 293.152C960.207 257.353 935.283 241.039 896.311 241.039H806.585V348.892ZM1284.81 199.348V242.851H1103.09V333.937H1267.59V376.535H1103.09V478.496H1283.45V522H1054.6V199.348H1284.81ZM1439.21 199.348C1540.27 199.348 1599.18 260.978 1599.18 360.674C1599.18 460.37 1540.27 522 1439.21 522H1324.11V199.348H1439.21ZM1372.6 479.403H1438.76C1509.9 479.403 1548.42 435.899 1548.42 360.674C1548.42 285.449 1509.9 241.945 1438.76 241.945H1372.6V479.403ZM1903.03 522H1851.82L1820.1 438.165H1675.09L1643.82 522H1593.52L1719.5 199.348H1775.24L1903.03 522ZM1697.29 378.347L1690.49 396.021H1804.24L1797.44 378.347C1784.3 345.266 1763.45 290.887 1747.14 246.023C1730.83 290.887 1709.98 345.266 1697.29 378.347ZM2050.03 529.251C1961.21 529.251 1897.77 464.901 1897.77 360.674C1897.77 256.446 1960.76 192.097 2050.03 192.097C2117.1 192.097 2176.01 227.444 2191.42 306.294H2142.47C2128.88 255.087 2091.72 235.601 2050.03 235.601C1988.4 235.601 1948.07 281.823 1948.07 360.674C1948.07 439.524 1988.4 485.747 2050.03 485.747C2093.99 485.747 2137.04 459.917 2144.74 402.818H2193.23C2184.17 487.56 2119.82 529.251 2050.03 529.251ZM2186.16 199.348H2449.44V242.851H2342.5V522H2293.1V242.851H2186.16V199.348ZM2534.27 522H2485.78V199.348H2534.27V522ZM2810.45 199.348V242.851H2639.15V333.937H2793.68V376.535H2639.15V522H2590.66V199.348H2810.45ZM3016.05 266.869L3057.74 199.348H3111.67L2989.32 393.302V522H2941.28V393.302L2818.47 199.348H2873.31L2915.9 267.322C2932.67 294.965 2949.89 322.608 2966.21 349.798C2982.07 322.155 2998.83 294.059 3016.05 266.869Z" fill="white"/>
</svg>
